# xmcd
#
# Track frame offsets: 
#        150
#        14518
#        29299
#        40909
#        60814
#        77363
#        90112
#        109278
#        128482
#        148912
#        163017
#        176665
#        189745
#        199835
#
# Disc length: 2873 seconds
#
# Revision: 0
# Processed by: cddbd v1.5.2PL0 Copyright (c) Steve Scherf et al.
# Submitted via: ExactAudioCopy v1.0b3
#
DISCID=af0b370e
DTITLE=Fields Of Home - Bittersweet
DYEAR=2007
DGENRE=Bluegrass
TTITLE0=Runaway Train
TTITLE1=Listen to the Angels
TTITLE2=Locust St. Breakdown
TTITLE3=Reasons Why
TTITLE4=I Still Remember Her Name
TTITLE5=Sugar Mt.
TTITLE6=Those Memories
TTITLE7=Pike County Blues
TTITLE8=Bittersweet
TTITLE9=Old Home Place
TTITLE10=Heaven Bright Shore
TTITLE11=Cold and Lonely
TTITLE12=Red Haired Boy
TTITLE13=Will I Make it out Alive
EXTD=
EXTT0=
EXTT1=
EXTT2=
EXTT3=
EXTT4=
EXTT5=
EXTT6=
EXTT7=
EXTT8=
EXTT9=
EXTT10=
EXTT11=
EXTT12=
EXTT13=
PLAYORDER=
